<svg width="111" height="22" viewBox="0 0 111 22" fill="none" xmlns="http://www.w3.org/2000/svg">
<g clip-path="url(#clip0_964_14578)">
<path d="M20.6306 8.41256C20.5729 8.24274 20.4668 8.09353 20.3253 7.98335C20.1838 7.87316 20.0132 7.80681 19.8344 7.79251L14.6053 7.377L12.3424 2.36798C12.2704 2.20665 12.1532 2.06963 12.0049 1.97344C11.8567 1.87726 11.6838 1.82602 11.5071 1.82593C11.3304 1.82583 11.1575 1.87687 11.0092 1.9729C10.8608 2.06892 10.7435 2.20582 10.6712 2.36707L8.40842 7.377L3.17927 7.79251C3.00358 7.80642 2.83562 7.87066 2.69548 7.97754C2.55534 8.08442 2.44896 8.2294 2.38907 8.39516C2.32917 8.56091 2.3183 8.74041 2.35774 8.91218C2.39719 9.08395 2.48529 9.24072 2.6115 9.36373L6.47581 13.1308L5.10913 19.0488C5.06763 19.2279 5.08093 19.4154 5.1473 19.5869C5.21368 19.7584 5.33006 19.9059 5.48135 20.0105C5.63263 20.115 5.81184 20.1716 5.99571 20.173C6.17959 20.1744 6.35964 20.1205 6.5125 20.0183L11.5068 16.6888L16.5012 20.0183C16.6574 20.1221 16.8417 20.1755 17.0292 20.1713C17.2167 20.1672 17.3984 20.1058 17.5499 19.9953C17.7015 19.8848 17.8156 19.7306 17.8768 19.5533C17.9381 19.3761 17.9436 19.1843 17.8926 19.0039L16.215 13.1336L20.3756 9.38941C20.648 9.14359 20.748 8.76019 20.6306 8.41256Z" fill="#F3CD03"/>
<path d="M42.6452 8.41256C42.5876 8.24274 42.4814 8.09353 42.34 7.98335C42.1985 7.87316 42.0278 7.80681 41.8491 7.79251L36.6199 7.377L34.3571 2.36798C34.285 2.20665 34.1678 2.06963 34.0196 1.97344C33.8714 1.87726 33.6985 1.82602 33.5218 1.82593C33.3451 1.82583 33.1721 1.87687 33.0238 1.9729C32.8755 2.06892 32.7581 2.20582 32.6859 2.36707L30.4231 7.377L25.1939 7.79251C25.0182 7.80642 24.8503 7.87066 24.7101 7.97754C24.57 8.08442 24.4636 8.2294 24.4037 8.39516C24.3438 8.56091 24.3329 8.74041 24.3724 8.91218C24.4118 9.08395 24.4999 9.24072 24.6262 9.36373L28.4905 13.1308L27.1238 19.0488C27.0823 19.2279 27.0956 19.4154 27.162 19.5869C27.2283 19.7584 27.3447 19.9059 27.496 20.0105C27.6473 20.115 27.8265 20.1716 28.0104 20.173C28.1942 20.1744 28.3743 20.1205 28.5271 20.0183L33.5215 16.6888L38.5158 20.0183C38.6721 20.1221 38.8563 20.1755 39.0438 20.1713C39.2313 20.1672 39.413 20.1058 39.5646 19.9953C39.7161 19.8848 39.8302 19.7306 39.8915 19.5533C39.9527 19.3761 39.9582 19.1843 39.9073 19.0039L38.2296 13.1336L42.3902 9.38941C42.6626 9.14359 42.7626 8.76019 42.6452 8.41256Z" fill="#F3CD03"/>
<path d="M64.6555 8.41256C64.5978 8.24274 64.4917 8.09353 64.3502 7.98335C64.2087 7.87316 64.0381 7.80681 63.8593 7.79251L58.6302 7.377L56.3673 2.36798C56.2953 2.20665 56.1781 2.06963 56.0298 1.97344C55.8816 1.87726 55.7087 1.82602 55.532 1.82593C55.3553 1.82583 55.1824 1.87687 55.0341 1.9729C54.8857 2.06892 54.7684 2.20582 54.6961 2.36707L52.4333 7.377L47.2042 7.79251C47.0285 7.80642 46.8605 7.87066 46.7204 7.97754C46.5802 8.08442 46.4739 8.2294 46.414 8.39516C46.3541 8.56091 46.3432 8.74041 46.3826 8.91218C46.4221 9.08395 46.5102 9.24072 46.6364 9.36373L50.5007 13.1308L49.134 19.0488C49.0925 19.2279 49.1058 19.4154 49.1722 19.5869C49.2386 19.7584 49.355 19.9059 49.5062 20.0105C49.6575 20.115 49.8367 20.1716 50.0206 20.173C50.2045 20.1744 50.3845 20.1205 50.5374 20.0183L55.5317 16.6888L60.5261 20.0183C60.6823 20.1221 60.8666 20.1755 61.0541 20.1713C61.2416 20.1672 61.4233 20.1058 61.5748 19.9953C61.7264 19.8848 61.8405 19.7306 61.9017 19.5533C61.963 19.3761 61.9685 19.1843 61.9175 19.0039L60.2399 13.1336L64.4005 9.38941C64.6729 9.14359 64.7729 8.76019 64.6555 8.41256Z" fill="#F3CD03"/>
<path d="M86.6716 8.41256C86.6139 8.24274 86.5078 8.09353 86.3663 7.98335C86.2248 7.87316 86.0542 7.80681 85.8754 7.79251L80.6463 7.377L78.3835 2.36798C78.3114 2.20665 78.1942 2.06963 78.046 1.97344C77.8977 1.87726 77.7248 1.82602 77.5482 1.82593C77.3715 1.82583 77.1985 1.87687 77.0502 1.9729C76.9019 2.06892 76.7845 2.20582 76.7123 2.36707L74.4494 7.377L69.2203 7.79251C69.0446 7.80642 68.8766 7.87066 68.7365 7.97754C68.5964 8.08442 68.49 8.2294 68.4301 8.39516C68.3702 8.56091 68.3593 8.74041 68.3988 8.91218C68.4382 9.08395 68.5263 9.24072 68.6525 9.36373L72.5168 13.1308L71.1501 19.0488C71.1086 19.2279 71.1219 19.4154 71.1883 19.5869C71.2547 19.7584 71.3711 19.9059 71.5224 20.0105C71.6736 20.115 71.8529 20.1716 72.0367 20.173C72.2206 20.1744 72.4007 20.1205 72.5535 20.0183L77.5479 16.6888L82.5422 20.0183C82.6984 20.1221 82.8827 20.1755 83.0702 20.1713C83.2577 20.1672 83.4394 20.1058 83.591 19.9953C83.7425 19.8848 83.8566 19.7306 83.9178 19.5533C83.9791 19.3761 83.9846 19.1843 83.9336 19.0039L82.256 13.1336L86.4166 9.38941C86.689 9.14359 86.789 8.76019 86.6716 8.41256Z" fill="#F3CD03"/>
<path d="M94.5324 13.1308L93.1657 19.0488C93.1234 19.228 93.1361 19.4158 93.2022 19.5877C93.2682 19.7596 93.3846 19.9075 93.5361 20.0122C93.6875 20.1169 93.867 20.1735 94.0512 20.1746C94.2353 20.1757 94.4155 20.1212 94.5682 20.0183L99.5625 16.6888L104.557 20.0183C104.713 20.1221 104.897 20.1755 105.085 20.1714C105.272 20.1673 105.454 20.1058 105.606 19.9953C105.757 19.8849 105.871 19.7306 105.932 19.5534C105.994 19.3761 105.999 19.1844 105.948 19.0039L104.271 13.1336L108.431 9.38944C108.564 9.26946 108.66 9.11304 108.705 8.93955C108.75 8.76605 108.744 8.58308 108.686 8.41327C108.629 8.24345 108.522 8.09424 108.381 7.98408C108.239 7.87392 108.069 7.80764 107.89 7.79345L102.661 7.37703L100.398 2.36801C100.326 2.20672 100.209 2.06976 100.06 1.97366C99.9121 1.87755 99.7392 1.82642 99.5625 1.82642C99.3858 1.82642 99.2129 1.87755 99.0646 1.97366C98.9163 2.06976 98.7991 2.20672 98.7269 2.36801L96.4641 7.37703L91.2349 7.79254C91.0592 7.80645 90.8913 7.87069 90.7511 7.97757C90.611 8.08445 90.5046 8.22943 90.4447 8.39518C90.3848 8.56094 90.374 8.74044 90.4134 8.91221C90.4529 9.08398 90.541 9.24074 90.6672 9.36376L94.5324 13.1308ZM97.1493 9.16288C97.313 9.14998 97.4702 9.09328 97.6045 8.99871C97.7388 8.90414 97.8451 8.77519 97.9124 8.62538L99.5625 4.97387L101.213 8.62538C101.28 8.77519 101.386 8.90414 101.521 8.99871C101.655 9.09328 101.812 9.14998 101.976 9.16288L105.619 9.45181L102.619 12.1521C102.358 12.387 102.255 12.7484 102.35 13.0859L103.499 17.108L100.072 14.8231C99.9221 14.7222 99.745 14.6683 99.5639 14.6683C99.3827 14.6683 99.2057 14.7222 99.0553 14.8231L95.4744 17.2107L96.4375 13.0409C96.4728 12.8876 96.4681 12.7277 96.4237 12.5767C96.3794 12.4257 96.2969 12.2887 96.1843 12.1787L93.3978 9.4619L97.1493 9.16288Z" fill="#F3CD03"/>
</g>
<defs>
<clipPath id="clip0_964_14578">
<rect width="110.068" height="22" fill="white" transform="translate(0.5)"/>
</clipPath>
</defs>
</svg>
